<svg t="1661807866206" class="icon" viewBox="0 0 1024 1024" version="1.1" xmlns="http://www.w3.org/2000/svg" p-id="2375" width="200" height="200"><path d="M85.5 1004.2c-41.5 0-74.7-27.3-82.6-67.9-1.3-6.9-1.5-13.8-1.5-19V734.6c0-100 0-203.5-0.1-305.3 0-8.9 3.5-14.9 11.2-19.7h0.1c29.4-17.5 59.2-35.4 87.9-52.6l2.9-1.7c8.2-4.9 16.4-9.8 24.5-14.7l1.5-0.9c15-9 30.6-18.3 46-27.5l4.2-2.5V105.8c0-34.5 15.8-61.2 45.7-77.1 11.1-5.9 23.3-8.9 36.3-8.9h278.8c83.6 0 155.7 0 221.8 0.1 22.1 0 42.7 8.7 58.2 24.5 15.4 15.7 23.9 36.7 23.9 59.1 0.2 68 0.1 136.9-0.1 201.3v4.9l4.2 2.5c20.7 12.3 41.7 24.8 61.9 36.9l12.9 7.7c26.8 16 56.1 33.5 87.1 51.9 8.4 5.1 12.2 11.7 12.2 21.6-0.1 115.7-0.1 233.4-0.1 347.2v142.4c0 40.1-25.9 73.1-64.5 82.1-6.1 1.4-13.1 2.1-21.7 2.1-97.7 0.1-194.2 0.1-287.4 0.1l-364.3 0.1h-199z m-5.6-558.1c-3.6 2.1-6.3 3.8-8.9 5.2l-4.3 2.5v5c0.1 124.8 0.1 251.6 0.1 374.3v83.4c0 16.3 5.8 22.1 22 22.1h537.3l160.4-0.1h150.8c12.3 0 19.6-7 19.6-18.7V785.2c0-107.2 0-218.1 0.1-327.2v-4.9l-4.2-2.5c-7.1-4.2-17.8-10.6-28.8-17.2l-5.3-3.2-4.7 4C800 529.3 676 632.8 523.5 760L506 774.6c-0.6 0.5-1.2 1-1.8 1.4l-0.3 0.2c-0.4 0.3-0.8 0.6-1.2 1l-0.3 0.3-0.2 0.1-0.9 0.8-7.6 5.8L85.2 443l-5.3 3.1zM262.3 85.4c-7.1 0.5-11.7 3.1-14.1 8-1.8 3.8-2.9 9-2.9 14.4 0 31.2-0.1 62.6-0.1 94v0.8c0 31.9 0 63.6-0.1 94.7 0 63.8-0.1 130.8-0.2 189.8v4.1l3.1 2.6c48.8 40.5 98.8 82.3 148.8 124.1l39 32.5 58.3 48.7 43.3-36.1c25-20.9 50.4-42 75.8-63.2l1.7-1.4c52.8-44 107.4-89.6 160.9-134.1l3.1-2.6v-4.1c-0.1-97.7-0.1-196.9-0.1-292.8v-56.6c0-16.9-5.9-22.8-22.5-22.8H266.8l-0.4-0.1H263l-0.5 0.1h-0.2zM144.7 407.3l34.5 28.8v-49.7l-34.5 20.9z" p-id="2376"></path><path d="M571.5 127.1h165.7v58.2H571.5zM286.7 340.3h450.4V399H286.7z m-0.1-106.5h450.7V292H286.6z" p-id="2377"></path></svg>